<svg xmlns="http://www.w3.org/2000/svg" viewBox="0 0 987.15 266.5"><defs><style>.cls-1{fill:#326d6c;}.cls-1,.cls-2,.cls-3,.cls-4{fill-rule:evenodd;}.cls-2{fill:#bad7d0;}.cls-3{fill:#6daa9c;}.cls-4{fill:#fff;}</style></defs><title>Artboard 2 copy 2</title><g id="Layer_4" data-name="Layer 4"><path class="cls-1" d="M130.55,39l37.67,21.75L205.9,82.54v87L194,176.41,188,166l5.86-3.38V97h0V89.49L162.2,71.22,130.55,53l-4.2,2.42-2.78-12.3,7-4Zm6.53,32.77v50.46l43.7,25.23V97l-6.53-3.77L155.67,82.54Z"></path><path class="cls-2" d="M130.55,53V39L92.87,60.79,55.2,82.54v87l9.86-1.81,2.18-5.15V97h0V89.49L98.9,71.22,130.55,53ZM124,71.81v50.46L80.31,147.5V97l6.54-3.77,18.58-10.73Z"></path><path class="cls-3" d="M124,195.36h0L98.9,180.87,67.24,162.59l-5.11,3-6.93,4L92.87,191.3l37.68,21.75,37.67-21.75,37.68-21.75-12.05-7L162.2,180.87l-25.12,14.5h0l-6.53,3.77L124,195.36Zm50.24-36.54-18.58,10.73-18.59,10.73-6.53,3.77L124,180.28l-18.58-10.73L86.85,158.82l43.7-25.23Z"></path></g><g id="Layer_5" data-name="Layer 5"><path class="cls-4" d="M313.08,98.58h20.44v9.52a34.49,34.49,0,0,1,11.7-8.65,33.89,33.89,0,0,1,14-2.87,26,26,0,0,1,13.83,3.76,27.29,27.29,0,0,1,9.94,11,33.16,33.16,0,0,1,12-11,32.74,32.74,0,0,1,15.54-3.76,28.93,28.93,0,0,1,15.34,4,23.51,23.51,0,0,1,9.53,10.55q2.88,6.54,2.89,21.21v47.78H417.87V138.93q0-13.83-3.48-18.72c-2.33-3.25-5.84-4.89-10.48-4.89a15.93,15.93,0,0,0-9.52,3,17.49,17.49,0,0,0-6.28,8.25c-1.35,3.5-2.05,9.14-2.05,16.92v36.67H365.63V140.8q0-10.91-1.64-15.8a14.39,14.39,0,0,0-4.87-7.3,13.06,13.06,0,0,0-7.88-2.38,15.58,15.58,0,0,0-9.35,3,18.21,18.21,0,0,0-6.3,8.48q-2.07,5.46-2.07,17.18v36.16H313.08V98.58Zm183-2a43.45,43.45,0,0,1,21.74,5.76,42.14,42.14,0,0,1,21.61,36.95,42.78,42.78,0,0,1-5.73,21.54A41.54,41.54,0,0,1,518,176.5a43.52,43.52,0,0,1-21.86,5.66,40.84,40.84,0,0,1-30-12.45,41.29,41.29,0,0,1-12.44-30.26,42.76,42.76,0,0,1,42.38-42.87Zm.31,19.2a21.15,21.15,0,0,0-15.91,6.61c-4.22,4.43-6.35,10.07-6.35,17q0,10.6,6.28,17.19a21,21,0,0,0,15.9,6.58,21.35,21.35,0,0,0,16-6.66q6.38-6.64,6.37-17.11c0-7-2.1-12.65-6.27-17a21.28,21.28,0,0,0-16-6.53Zm120-48.7h20.43V180.16H616.41v-8.68a40,40,0,0,1-12,8.17,34,34,0,0,1-13.09,2.51q-15.85,0-27.4-12.24t-11.55-30.4q0-18.86,11.2-30.91t27.14-12a35,35,0,0,1,13.8,2.74,38.23,38.23,0,0,1,11.94,8.27V67.08Zm-21.54,48.24a20.67,20.67,0,0,0-15.8,6.71q-6.3,6.69-6.3,17.19t6.4,17.38A20.82,20.82,0,0,0,595,163.41a21.06,21.06,0,0,0,16-6.7c4.25-4.46,6.38-10.33,6.38-17.57q0-10.63-6.38-17.23a21.38,21.38,0,0,0-16.08-6.59Zm62.58-16.74H678.2v39.23q0,11.44,1.58,15.9a14,14,0,0,0,5.07,6.94,14.68,14.68,0,0,0,8.64,2.46,15.14,15.14,0,0,0,8.7-2.44,14.17,14.17,0,0,0,5.3-7.14q1.28-3.54,1.28-15.06V98.58h20.44v34.51q0,21.36-3.38,29.22A31.83,31.83,0,0,1,713.66,177q-8,5.1-20.4,5.12c-9,0-16.19-2-21.72-6a31.63,31.63,0,0,1-11.68-16.7q-2.42-7.41-2.41-27V98.58Zm90.07-31.5H768V180.16H747.52V67.08Zm77.36,29.5a43.45,43.45,0,0,1,21.74,5.76,42.14,42.14,0,0,1,21.61,36.95,42.78,42.78,0,0,1-5.73,21.54,41.54,41.54,0,0,1-15.68,15.67A43.52,43.52,0,0,1,825,182.16a40.84,40.84,0,0,1-30-12.45,41.29,41.29,0,0,1-12.44-30.26,42.76,42.76,0,0,1,42.38-42.87Zm.31,19.2a21.15,21.15,0,0,0-15.91,6.61c-4.22,4.43-6.35,10.07-6.35,17q0,10.6,6.28,17.19a21,21,0,0,0,15.9,6.58,21.32,21.32,0,0,0,16-6.66q6.38-6.64,6.38-17.11c0-7-2.1-12.65-6.27-17a21.28,21.28,0,0,0-16-6.53Zm109.6-5.66-12.65,12.73q-7.68-7.68-14-7.68a8.84,8.84,0,0,0-5.38,1.46,4.34,4.34,0,0,0-1.95,3.61,4.44,4.44,0,0,0,1.23,3c.82.92,2.87,2.18,6.12,3.79l7.48,3.74c7.88,3.87,13.31,7.84,16.26,11.86a24.7,24.7,0,0,1-3.59,32.26q-8,7.26-21.43,7.25c-11.88,0-21.41-4.63-28.5-13.93L891,154.5a29.17,29.17,0,0,0,8.48,6.79,18.9,18.9,0,0,0,8.6,2.59,10.24,10.24,0,0,0,6.53-1.95,5.61,5.61,0,0,0,2.49-4.48q0-4.72-8.94-9.2l-6.89-3.45q-19.81-10-19.82-24.89a21.6,21.6,0,0,1,7.45-16.49q7.46-6.84,19.06-6.84a33.07,33.07,0,0,1,26.81,13.54Z"></path></g></svg>